<?xml version="1.0" encoding="utf-8"?>
<!-- Generator: Adobe Illustrator 16.0.0, SVG Export Plug-In . SVG Version: 6.00 Build 0)  -->
<!DOCTYPE svg PUBLIC "-//W3C//DTD SVG 1.1//EN" "http://www.w3.org/Graphics/SVG/1.1/DTD/svg11.dtd">
<svg version="1.1" xmlns="http://www.w3.org/2000/svg" xmlns:xlink="http://www.w3.org/1999/xlink" x="0px" y="0px"
	 width="399.815px" height="321.332px" viewBox="0 0 399.815 321.332" enable-background="new 0 0 399.815 321.332"
	 xml:space="preserve">
<g id="South_x5F_China_x5F_Sea">
	
		<rect id="South_x5F_China_x5F_Sea_1_" x="0.001" y="0.491" fill="#669999" stroke="#000000" stroke-miterlimit="10" width="399.814" height="320.84"/>
</g>
<g id="Countries">
	<path id="South_x5F_Vietnam" fill="#999999" stroke="#000000" stroke-miterlimit="10" d="M133.519,286.041
		c4.285,3.487,8.132,6.927,12.148,10.804c4.126,3.98,10.001,5.325,14.771,8.378c4.655,2.98,8.343,8.436,12.515,12.216
		c1.502,1.362,2.214,2.672,2.265,3.892l-6.879,0.002c-0.15-0.253-0.304-0.5-0.459-0.74c-1.271-1.961-2.936-3.457-4.312-5.307
		c-2.982-4.01-6.068-6.647-10.23-9.563c-7.58-5.309-13.627-13.526-20.558-19.436 M156.964,220.886
		c3.196,0.758,6.506,0.998,9.812,1.789c4.638,1.107,9.102,2.815,13.621,3.899c2.683,0.644,5.372,0.677,8.146,0.975
		c2.74,0.296,5.325,1.382,8.094,1.485c5.031,0.189,7.831-3.975,13.132-1.696c4.33,1.863,9.915,4.026,8.088,9.576
		c-1.922,5.843-7.038,1.519-10.242-0.302c-3.224-1.833-7.54-2.495-11.162-2.893c-3.99-0.439-7.915-1.482-11.856-2.653
		c-9.239-2.745-20.437-4.486-28.124-10.428 M224.15,243.294c-1.534,0.14-5.196-1.394-4.757-3.417
		c0.747-3.433,10.99-5.113,9.889,0.012C228.942,241.477,225.783,243.146,224.15,243.294z M178.983,321.334
		c-1.448-1.483-2.779-3.107-3.939-4.869c-1.994-3.031-3.489-6.322-5.744-9.145c-2.106-2.638-4.821-4.063-7.219-6.273
		c-4.188-3.859-8.827-5.034-13.506-8.043c-2.668-1.715-5.041-3.765-7.665-5.543c-2.507-1.701-5.457-2.729-7.882-4.684
		c-1.999-1.611-3.563-3.738-5.105-5.714c-2.657-3.407-5.826-5.401-8.844-8.268c-2.481-2.356-3.818-5.664-5.853-8.367
		c-1.679-2.232-3.646-4.299-5.867-5.986c-2.092-1.588-5.989-6.246-8.601-6.124c-0.703,4.353,2.795,10.034,4.894,13.716
		c1.357,2.382,3.829,4.355,4.934,6.749l3.519,2.204c4.692,4.031,8.307,9.055,13.21,12.9c5.43,4.257,9.637,9.038,14.142,14.059
		c4.147,4.623,8.844,8.101,13.628,12.082c1.91,1.59,4.359,3.11,5.794,4.896c1.816,2.26,3.275,4.361,5.021,6.407l-95.301,0.001
		c-1.527-1.932-3.126-3.73-4.434-5.865c-1.316-2.15-3.005-5.023-6.127-4.462c0.219,3.61-4.065-0.285-5.676,0
		c-0.177,2.59,3.544,3.587,4.957,5.084c0.957,1.013,1.001,2.246,1.848,3.269c0.884,1.067,2.182,1.454,3.403,1.968l-62.569,0.006
		l0-254.123c1.507-0.654,3.125-1.068,4.934-1.066c9.411,0.003,10.988,9.054,15.542,15.548c2.615,3.727,5.729,7.305,7.232,11.791
		c1.124,3.358,2.448,7.626,5.054,10.236c3.143,3.147,7.731,1.761,10.611-1.049c1.954-1.906,6.687-9.633,4.788-12.075
		c1.921,3.665,6.602,5.805,9.04,9.429c2.311,3.434,4.563,6.7,7.959,9.249c6.554,4.92,17.072,4.058,24.92,4.751
		c3.113,0.274,7.452,2.316,9.65,4.602c-0.661-4.165-2.604-8.03-3.221-12.253c-0.562-3.838-1.467-8.184-3.896-11.408
		c-3.448-4.578-10.725-16.385-1.794-19.195c2.838-0.894,5.837-0.438,8.838-0.288c-0.738-1.248-0.631-3.129-1.248-5.071
		c-1.244-3.922-1.936-8.058-3.393-11.91c-1.016-2.681-2.724-4.584-5.005-6.361c-1.794-1.396-4.806-2.662-6.898-1.344
		c-2.633,1.66-2.059,5.122-3.141,7.636c-1.288-2.216-1.267-4.308-2.788-6.359c-1.42-1.915-3.312-3.34-4.827-5.145
		c-1.081-1.288-1.772-2.81-2.915-4.104c-2.42-2.745-5.97-4.427-7.997-7.536c-2.722-4.172-2.62-7.556-8.14-8.618
		c-4.372-0.842-11.825-1.384-13.63-6.177c-1.5-3.985,1.022-8.428-3.453-11.057c-3.404-2-8.208-2.253-7.789-7.646
		c0.035-0.44,0.099-0.872,0.187-1.296h371.191v159.112c-0.58,0.19-1.144,0.392-1.685,0.61c-1.976,0.797-4.625,3.326-6.535,3.03
		c-1.38,3.579-3.263,4.697-5.974,7.022c-2.232,1.915-3.895,6.707-6.367,7.962c-2.529,1.284-6.867-0.792-9.795-0.028
		c-2.07,0.538-2.825,3.249-4.004,4.976c-1.787,2.618-2.421,3.098-5.794,2.919c-4.568-0.242-8.956-1.771-13.42-0.147
		c-4.217,1.534-7.444,4.93-10.594,7.979c-3.293,3.186-6.291,7.797-10.12,10.193c-4.46,2.789-4.672-1.808-7.657-3.913
		c-2.623-1.853-5.742-0.982-8.328,0.431c-0.315-0.93-0.401-1.932-0.266-2.898c2.025-0.51,2.424-1.694,2.146-3.707
		c-2.464-0.576-4.87,2.395-6.124,4.157c-1.068,1.502-0.857,3.751-2.037,5.126c-1.116,1.299-3.387,1.909-4.82,3.086
		c-2.49,2.047-4.437,4.662-6.176,7.342c-1.293,1.991-2.214,4.79-4.063,2.468c-1.387-1.74-0.493-4.194-1.614-5.928
		c-1.095-1.695-2.251-2.045-2.958-4.195c-0.764-2.322-1.29-3.022,1.177-3.456c3.02-0.532,5.601-0.835,8.384-2.036
		c2.215-0.954,7.019-1.305,8.113-3.578c-1.429-0.711-5.028,0.372-6.081-1.087c-1.062-1.47,1.041-4.294,0.894-5.843
		c-2.671-1.426-6.25,4.351-10.084,3.608c-2.244-0.434-4.757-1.377-5.42-3.405c-0.494-1.51,0.761-4.133-0.244-5.428
		c-0.889-1.147-3.32-0.768-4.692-1.427c-2.199-1.058-1.564-0.971-1.18-3.209c0.54-3.148-0.975-2.273-4.291-3.562
		c-3.908,0.99-4.53,3.54-5.396,6.951c-1.102,4.352-5.321,2.662-4.96-1.441c-2.271-0.369-3.606,2.899-3.183,4.903
		c0.422,1.995,2.972,2.662,2.437,5.14c-0.49-0.086-1.192,0.193-1.672,0.081c0.366,2.494,5.723,4.356,8.083,4.194
		c0.381,0.451,0.843,1.31,1.005,1.895c-4.718,0.256-8.829,2.177-13.121,4.301c-2.277,1.127-6.245,4.956-8.782,4.584
		c-0.593-3.071,1.777-2.175,2.622-3.721c1.061-1.937-1.272-2.92-1.87-4.435c-0.656-1.668-3.33-9.355-0.336-9.618
		c0.432-0.545,0.62-1.172,0.497-1.896c-2.431-0.134-4.156-0.092-5.844,1.238c-0.28,1.272-0.924,2.856-0.295,4.16
		c0.59,1.226,2.247,1.308,2.667,2.956c0.774,3.043-2.784,5.171-4.883,6.644c-4.031-6.414-10.467-12.403-14.861-18.435
		c-2.062-2.832-2.828-6.168-3.167-9.667c-0.193-2.017,0.268-4.137-0.042-6.129c-0.241-1.553-1.156-4.995-1.673-6.472
		c0,3.987,0.874,8.385-0.815,12.118c-1.137,2.513-4.068,6.161-2.043,9.088c1.859-0.11,2.869,2.131,3.899,3.462
		c2.59,3.34,5.771,6.688,7.146,10.771c1.304,3.862,0.719,8.177,0.944,12.181c0.131,2.31,0.738,4.519,0.499,6.873
		c-0.397,3.922-2.358,12.424-7.67,12.403c-5.053-0.019-9.312-5.366-14.548-4.454c-2.497,0.434-4.088,2.363-6.431,2.966
		c-2.557,0.658-4.939-0.319-7.427-0.497c-3.871-0.279-7.531-0.418-11.242-1.656c-2.48-0.827-4.942-1.919-7.49-2.493
		c-4.854-1.092-9.903-0.211-14.357-2.838c-1.218-0.718-3.095-2.877-4.597-1.501c-1.308,1.197,0.235,3.228,1.187,4.046
		c1.95,1.676,5.254,2.254,7.648,2.899c6.37,1.714,12.13,4.804,18.475,6.737c3.113,0.948,6.402,1.329,9.5,2.263
		c2.911,0.878,5.26,2.933,8.058,4.077c5.699,2.332,11.055,5.024,16.65,7.499c4.545,2.009,10.065,3.572,12.984,7.926
		c1.665,2.484,2.267,4.971,1.166,7.838c-0.793,2.065-2.986,6.171-4.638,7.444c-0.152-0.418-0.846-1.084-0.965-1.564
		c-2.496,1.099-3.863,2.668-5.649,4.575c-1.663,1.776-3.738,2.947-5.72,4.382c-2.906-2.7-2.217-7.688-5.588-10.001
		c-0.37,1.51,0.472,2.419,0.666,3.814c0.238,1.713-0.021,3.456-0.441,5.118c-0.827,3.278-2.508,6.449-4.56,9.125
		c-1.171,1.526-1.387,3.018-1.727,4.747c-1.107,5.636-5.715,3.79-9.613,1.789c-2.953-1.516-5.973-2.71-9.052-4.071
		c-3.54-1.564-7.057-3.396-10.702-4.566c-8.957-2.872-14.431-10-18.951-18.064c-4.098-7.312-8.672-13.352-13.839-19.743
		c-0.222,0.105-0.427,0.176-0.678,0.275c-0.514,2.462,1.43,5.743,1.685,8.349c0.337,3.459,2.518,6.83,4.681,9.438
		c3.366,4.058,7.757,7.104,11.265,11.025c3.228,3.609,4.021,9.712,9.468,10.392c1.69,0.21,3.141-0.876,4.764-0.318
		c1.159,0.399,2.47,1.633,3.628,2.22c1.982,1.007,4.039,1.804,5.942,2.969c7.187,4.402,13.138,10.542,19.502,15.897
		c0.738-1.647,1.279-4.041,3.616-2.706c0.875,0.5,1.901,2.422,2.536,3.146c1.067,1.216,4.077,3.033,4.406,4.665
		c0.387,1.901-1.489,3.035-2.378,4.476c-1.134,1.838-0.979,4.31-2.06,5.883c-0.707,0.139-1.685,0.133-2.399,0.006
		c-0.072-3.915-1.219-3.843-3.315-1.325c-0.638,0.766-1.261,1.557-1.888,2.349L178.983,321.334z"/>
	<path id="Cambodia_3_" fill-rule="evenodd" clip-rule="evenodd" fill="#999999" stroke="#000000" stroke-miterlimit="10" d="
		M0.001,67.208c1.507-0.654,3.125-1.068,4.934-1.066c9.411,0.003,10.988,9.054,15.542,15.548c2.615,3.727,5.729,7.305,7.232,11.791
		c1.124,3.358,2.448,7.626,5.054,10.236c3.143,3.147,7.731,1.761,10.611-1.049c1.954-1.906,6.687-9.633,4.788-12.075
		c1.921,3.665,6.602,5.805,9.04,9.429c2.311,3.434,4.563,6.7,7.959,9.249c6.554,4.92,17.072,4.058,24.92,4.751
		c3.113,0.274,7.452,2.316,9.65,4.602c-0.661-4.165-2.604-8.03-3.221-12.253c-0.562-3.838-1.467-8.184-3.896-11.408
		c-3.448-4.578-10.725-16.385-1.794-19.195c2.838-0.894,5.837-0.438,8.838-0.288c-0.738-1.248-0.631-3.129-1.248-5.071
		c-1.244-3.922-1.936-8.058-3.393-11.91c-1.016-2.681-2.724-4.584-5.005-6.361c-1.794-1.396-4.806-2.662-6.898-1.344
		c-2.633,1.66-2.059,5.122-3.141,7.636c-1.288-2.216-1.267-4.308-2.788-6.359c-1.42-1.915-3.312-3.34-4.827-5.145
		c-1.081-1.288-1.772-2.81-2.915-4.104c-2.42-2.745-5.97-4.427-7.997-7.536c-2.722-4.172-2.62-7.556-8.14-8.618
		c-4.372-0.842-11.825-1.384-13.63-6.177c-1.5-3.985,1.022-8.428-3.453-11.057c-3.404-2-8.208-2.253-7.789-7.646
		c0.035-0.44,0.099-0.872,0.187-1.296H0.001L0.001,67.208z"/>
</g>
<g id="Military_x5F_Zones">
	<g id="South_Vietnam">
		<g id="Capital_Zone">
			<path fill="#CCCC99" d="M216.074,158.443c-0.09-13.983-18.255-8.238-25.636-13.606c-3.058-2.222-6.745-6.647-9.079-9.717
				c-1.921-2.525-7.294-8.975-7.2-12.133c0.049-1.636,2.41-3.618,3.321-5.727c3.48-8.072-0.341-15.335-2.046-23.314
				c-1.297-6.066,0.698-9.052,6.49-11.114c4.188-1.491,14.285-1.801,18.312-0.73c4.216,1.119,7.293,8.133,11.766,7.854
				c2.403-0.15,4.636-2.422,6.951-3.042c2.857-0.766,4.569-0.526,7.114,1.194c2.108,1.424,3.22,3.357,5.564,4.061
				c2.829,0.846,5.669-0.772,8.596-0.081c4.794,1.134,10.373,3.314,12.506,8.226c2.036,4.686,0.029,11.532-5.201,12.874
				c-10.188,2.616-22.545,2.553-19.529,17.04c1.125,5.405,2.627,9.183,8.053,10.456c2.887,0.677,5.949,1.915,8.894,2.213
				c3.01,0.304,5.84-0.216,8.597,0.658c8.82,2.796,11.928,16.144,22.509,11.491c1.703,2.859,2.716,8.35,2.583,11.913
				c-0.188,5.04-1.542,6.533-4.442,9.995l-3.99-0.287c-3.908,0.99-4.53,3.54-5.396,6.951c-1.102,4.352-5.321,2.662-4.96-1.441
				c-2.271-0.369-3.606,2.899-3.183,4.903c0.422,1.995,2.972,2.662,2.437,5.14c-0.49-0.086-1.192,0.193-1.672,0.081
				c0.366,2.494,5.723,4.356,8.083,4.194c0.381,0.451,0.843,1.31,1.005,1.895c-4.718,0.256-8.829,2.177-13.121,4.301
				c-2.277,1.127-6.245,4.956-8.782,4.584c-0.593-3.071,1.777-2.175,2.622-3.721c1.061-1.937-1.272-2.92-1.87-4.435
				c-0.656-1.668-3.33-9.355-0.336-9.618c0.432-0.545,0.62-1.172,0.497-1.896c-2.431-0.134-4.156-0.092-5.844,1.238
				c-0.28,1.272-0.924,2.856-0.295,4.16c0.59,1.226,2.247,1.308,2.667,2.956c0.774,3.043-2.784,5.171-4.883,6.644
				c-4.031-6.414-10.467-12.403-14.861-18.435c-2.062-2.832-2.828-6.168-3.167-9.667c-0.193-2.017,0.268-4.137-0.042-6.129
				L216.074,158.443z"/>
			<g>
				<path fill="none" stroke="#000000" stroke-width="2" stroke-miterlimit="10" d="M272.195,156.014
					c1.175-0.049,2.451-0.35,3.859-0.969c0.587,0.984,1.091,2.281,1.495,3.704"/>
				<path fill="none" stroke="#000000" stroke-width="2" stroke-miterlimit="10" stroke-dasharray="6.2198,4.6648" d="
					M278.457,163.325c0.156,1.303,0.221,2.556,0.181,3.633c-0.078,2.079-0.354,3.555-0.854,4.813"/>
				<path fill="none" stroke="#000000" stroke-width="2" stroke-miterlimit="10" d="M276.68,173.817
					c-0.651,0.962-1.475,1.929-2.485,3.136l-3.99-0.287"/>
				<path fill="none" stroke="#000000" stroke-width="2" stroke-miterlimit="10" stroke-dasharray="5.7913,4.3435" d="
					M266.585,178.91c-0.903,1.236-1.304,2.843-1.776,4.707c-0.32,1.266-0.904,2.02-1.562,2.353"/>
				<path fill="none" stroke="#000000" stroke-width="2" stroke-miterlimit="10" d="M261.195,185.764
					c-0.867-0.618-1.494-1.898-1.346-3.588c-1.38-0.225-2.413,0.894-2.918,2.254"/>
				<path fill="none" stroke="#000000" stroke-width="2" stroke-miterlimit="10" d="M257.583,188.723
					c0.846,0.982,1.881,1.83,1.521,3.496c-0.49-0.086-1.192,0.193-1.672,0.081c0.16,1.091,1.274,2.06,2.675,2.793"/>
				<path fill="none" stroke="#000000" stroke-width="2" stroke-miterlimit="10" d="M261.606,195.753
					c1.438,0.528,2.931,0.809,3.908,0.741c0.381,0.451,0.843,1.31,1.005,1.895c-1.36,0.074-2.671,0.286-3.95,0.602"/>
				<path fill="none" stroke="#000000" stroke-width="2" stroke-miterlimit="10" stroke-dasharray="6.3852,4.7889" d="
					M258.039,200.526c-1.548,0.647-3.083,1.392-4.641,2.163c-0.842,0.417-1.915,1.202-3.061,2.009"/>
				<path fill="none" stroke="#000000" stroke-width="2" stroke-miterlimit="10" d="M248.342,206.028
					c-1.341,0.815-2.66,1.401-3.727,1.245c-0.461-2.388,0.869-2.377,1.881-2.98"/>
				<path fill="none" stroke="#000000" stroke-width="2" stroke-miterlimit="10" stroke-dasharray="5.0976,3.8232" d="
					M246.799,201.021c-0.511-0.619-1.156-1.204-1.432-1.903c-0.281-0.716-0.935-2.539-1.352-4.408"/>
				<path fill="none" stroke="#000000" stroke-width="2" stroke-miterlimit="10" d="M243.696,192.825
					c-0.186-1.762,0.063-3.214,1.336-3.325c0.432-0.545,0.62-1.172,0.497-1.896c-1.555-0.086-2.82-0.1-3.973,0.25"/>
				<path fill="none" stroke="#000000" stroke-width="2" stroke-miterlimit="10" stroke-dasharray="6.0981,4.5736" d="
					M239.152,191.234c-0.066,0.609-0.029,1.214,0.238,1.768c0.59,1.226,2.247,1.308,2.667,2.956
					c0.227,0.892,0.082,1.704-0.289,2.445"/>
				<path fill="none" stroke="#000000" stroke-width="2" stroke-miterlimit="10" d="M240.364,200.194
					c-1.008,0.95-2.246,1.745-3.189,2.407c-0.695-1.107-1.463-2.201-2.279-3.286"/>
				<path fill="none" stroke="#000000" stroke-width="2" stroke-miterlimit="10" stroke-dasharray="8.0794,6.0595" d="
					M231.071,194.616c-3.03-3.528-6.231-6.982-8.758-10.449c-2.062-2.832-2.828-6.168-3.167-9.667
					c-0.193-2.017,0.268-4.137-0.042-6.129l-3.03-9.928c-0.09-13.983-18.255-8.238-25.636-13.606
					c-3.058-2.222-6.745-6.647-9.079-9.717c-1.921-2.525-7.294-8.975-7.2-12.133c0.049-1.636,2.41-3.618,3.321-5.727
					c3.48-8.072-0.341-15.335-2.046-23.314c-1.297-6.066,0.698-9.052,6.49-11.114c4.188-1.491,14.285-1.801,18.312-0.73
					c4.216,1.119,7.293,8.133,11.766,7.854c2.403-0.15,4.636-2.422,6.951-3.042c2.857-0.766,4.569-0.526,7.114,1.194
					c2.108,1.424,3.22,3.357,5.564,4.061c2.829,0.846,5.669-0.772,8.596-0.081c4.794,1.134,10.373,3.314,12.506,8.226
					c2.036,4.686,0.029,11.532-5.201,12.874c-10.188,2.616-22.545,2.553-19.529,17.04c1.125,5.405,2.627,9.183,8.053,10.456
					c2.887,0.677,5.949,1.915,8.894,2.213c3.01,0.304,5.84-0.216,8.597,0.658c6.576,2.085,9.977,10.035,15.668,12.018"/>
			</g>
		</g>
	</g>
</g>
<g id="relief">
	<g opacity="0.2">
		<path fill="#CECECE" d="M145.195,294.562c-3.795-0.559-5.577-2.66-6.505-5.794c-0.16-0.169-0.322-0.337-0.484-0.506
			c0.168,0.162,0.334,0.325,0.502,0.487C140.993,290.246,144.287,290.537,145.195,294.562 M137.182,287.277l0.057-0.026l0.967,1.011
			c-0.334-0.325-0.669-0.649-1.003-0.975L137.182,287.277 M131.27,289.347c-1.904,0-3.477-1.305-4.481-5.509
			c-0.738-3.087-5.573-5.195-7.438-9.103c7.871,1.541,11.146,9.535,17.832,12.542C135.053,288.241,133.022,289.347,131.27,289.347
			 M198.823,237.841c-1.117,0-2.021-1.213-3.573-1.79c0.832-0.106,1.534-0.18,2.132-0.18c1.332,0,2.137,0.359,2.681,1.482
			C199.602,237.702,199.201,237.841,198.823,237.841 M60.028,232.179c-1.51,0-3.046-0.281-4.624-1.094
			c2.084-1.842,4.081-2.668,6.027-2.668c2.073,0,4.091,0.936,6.1,2.577l0.109-0.02l0.041,0.047c0.379-0.091,0.742-0.132,1.092-0.132
			c1.718,0,3.122,0.989,4.526,1.977c1.403,0.989,2.807,1.979,4.523,1.979c0.198,0,0.399-0.013,0.604-0.04
			c-0.966,0.218-1.898,0.328-2.794,0.328c-3.095,0-5.76-1.322-7.952-4.111l-0.094,0.016l-0.057-0.043
			C65.057,231.376,62.582,232.179,60.028,232.179 M73.372,227.638c-2.423,0-3.699-2.108-4.965-4.62
			c-1.24-2.462-3.983-2.45-6.336-3.186c1.703-0.198,3.416-0.693,5.048-0.693c1.758,0,3.422,0.573,4.88,2.7
			c1.619,2.362,3.933,2.588,6.375,2.588c0.289,0,0.579-0.003,0.869-0.005c0.289-0.005,0.58-0.008,0.871-0.008
			c2.188,0,4.371,0.175,6.158,1.852c-1.475,1.66-2.555,4.16-4.353,4.16c-0.882,0-1.938-0.604-3.303-2.21
			c-0.515-0.604-1.634-1.36-2.238-1.36c-0.08,0-0.149,0.013-0.208,0.04C75.086,227.41,74.167,227.638,73.372,227.638
			 M23.833,223.511c-6.358,0-10.229-3.409-12.614-9.26c4.835,3.208,9.348,6.834,15.514,9.046
			C25.713,223.439,24.747,223.511,23.833,223.511 M205.169,191.912c-1.741-4.478-1.917-7.197,0.856-9.631
			c0.562-0.495,1.127-0.715,1.69-0.715c0.528,0,1.055,0.192,1.579,0.535c2.026,1.32-0.204,1.783-0.59,2.599
			C207.801,186.615,206.847,188.505,205.169,191.912 M221.013,186.222c-5.296-3.981-5.296-3.981-1.42-8.99
			C220.92,179.884,221.885,182.526,221.013,186.222 M298.735,177.349c0.018-5.289,4.479-8.385,7.701-10.563
			c0.441-0.299,0.791-0.424,1.07-0.424c0.865,0,1.027,1.219,1.025,2.26c0,0.628-0.059,1.19-0.058,1.38
			c0,0.028,0.001,0.051,0.004,0.061c0.23,1.065,0.335,1.99,0.333,2.797c-0.003,5.261-4.457,5.457-7.443,6.895
			c-0.386,0.187-0.725,0.27-1.02,0.27c-1.132,0-1.601-1.232-1.613-2.548C298.735,177.433,298.735,177.391,298.735,177.349
			 M249.998,173.948c-1.328,0-2.618-1.516-3.021-2.301c-1.46-2.847-6.878-4.51-3.693-8.854c2.396-3.265,2.742-6.182,0.637-9.442
			c-1.014-1.567-0.086-2.144,1.044-2.803c0.535-0.312,1.19-0.632,1.742-0.632c0.366,0,0.688,0.141,0.898,0.517
			c2.742,4.888,10.84,7.515,6.632,15.38c1.644,0.02,2.958,0.444,2.262,2.469c-0.161,0.467-1.059,0.683-1.617,1.014
			c-0.231-1.144-0.463-2.286-0.694-3.43c-1.24-0.683-2.481-1.367-4.104-2.262c0,1.271-0.09,1.992,0.018,2.684
			c0.376,2.428,4.008,4.604,1.09,7.182C250.805,173.81,250.399,173.948,249.998,173.948 M342.508,137.747
			c3.643,0,5.316-3.165,7.538-5.905c4.597-5.668,8.079-12.104,14.242-16.736c2.722-2.045,4.522-3.267,6.104-3.267
			c1.989,0,3.634,1.93,6.335,6.574l0,0l0,0c-2.416-1.559-4.491-2.193-6.319-2.193c-4.292,0-7.233,3.495-10.087,6.731
			c-3.56,4.039-6.919,8.377-9.616,13.021c-2.137,3.679-4.973,4.815-8.125,4.815c-1.292,0-2.635-0.191-4.006-0.476
			c-5.023-1.042-7.031-4.733-7.422-9.723c-0.506-6.455-1.602-9.245-4.721-9.245c-1.717-0.001-4.045,0.845-7.224,2.39
			c-3.326,1.615-6.578,3.39-9.939,4.927c-2.804,1.284-4.827,2.762-4.823,6.277c0,0.085,0.001,0.171,0.004,0.258
			c0.003,0.127,0.006,0.254,0.006,0.379c0.003,4.459-2.202,7.5-6.936,8.702c-6.256,1.589-11.564,6.276-18.301,6.276
			c-0.815,0-1.651-0.068-2.513-0.221l0,0l0,0c6.376-1.62,11.444-5.736,17.114-8.546c3.456-1.712,8.062-3.233,8.055-8.354
			c-0.001-0.492-0.045-1.02-0.136-1.583c-0.039-0.238-0.057-0.466-0.057-0.683c0.002-2.43,2.322-3.611,4.47-4.542
			c5.188-2.253,10.379-4.5,15.576-6.731c2.031-0.872,3.903-1.3,5.57-1.3c4.665,0,7.736,3.345,8.268,9.645
			c0.347,4.096,0.193,8.128,5.226,9.299C341.412,137.681,341.98,137.747,342.508,137.747 M347.488,81.746
			c0.003-1.17,0.525-2.119,1.909-2.904c0.425-0.239,0.939-0.368,1.438-0.368c0.801,0,1.558,0.331,1.819,1.054
			c0.199,0.55,0.286,1.022,0.286,1.439c-0.003,2.355-2.812,2.908-4.181,5.165C348.034,84.393,347.484,82.952,347.488,81.746
			 M389.462,0H345c-2.876,2.645-6.996,4.045-8.343,8.508l0,0c-0.003,0.011-0.007,0.021-0.01,0.033
			c-0.005,0.01-0.008,0.021-0.01,0.033c-0.516,1.589-1.828,1.748-3.202,1.748c-0.169,0-0.341-0.003-0.512-0.006l0,0l0,0
			c-0.096-0.002-0.192-0.003-0.288-0.003c-0.07-0.001-0.141-0.001-0.21-0.001c-0.004,0-0.009,0-0.013,0s-0.01,0-0.015,0
			c-0.189,0-0.376,0.002-0.558,0.013c-0.1,0.006-0.2,0.013-0.297,0.023c-0.036,0.004-0.072,0.007-0.108,0.01
			c-0.403,0.037-0.809,0.052-1.215,0.052c-0.004,0-0.009,0-0.015,0l0,0l0,0c-0.004,0-0.01,0-0.014,0
			c-0.378,0-0.755-0.012-1.133-0.025c-0.114-0.005-0.229-0.009-0.341-0.014l0,0l0,0c-0.137-0.006-0.273-0.01-0.409-0.016
			c-0.359-0.013-0.718-0.023-1.075-0.023c-0.003,0-0.006,0-0.009,0c-0.006,0-0.013,0-0.019,0c-1.612,0.002-3.201,0.213-4.689,1.299
			c-0.015,0.01-0.027,0.021-0.042,0.03c-0.01,0.008-0.021,0.015-0.03,0.023c-0.015,0.01-0.027,0.021-0.042,0.031
			c-0.013,0.009-0.024,0.02-0.037,0.028c-0.018,0.014-0.035,0.027-0.053,0.041l0,0c-0.013,0.011-0.024,0.021-0.037,0.029
			c-0.075,0.06-0.152,0.117-0.229,0.174c-1.154,0.855-2.484,1.486-3.687,1.49c-0.003,0-0.006,0-0.01,0l0,0l0,0
			c-0.003,0-0.006,0-0.009,0c-1.137-0.002-2.156-0.57-2.8-2.041c-0.007-0.017-0.015-0.032-0.021-0.05l0,0
			c-0.489-1.147-0.893-2.44-0.893-3.749c-0.001-1.659,0.64-3.343,2.564-4.791c1.179-0.889,2.301-1.854,3.401-2.848H33.167
			c-0.425,1.453-0.678,2.72-0.679,3.831c0,2.443,1.216,4.128,4.479,5.363c2.647,1.002,5.405,2.282,5.413,5.733
			c0.001,0.141-0.003,0.285-0.013,0.433c-0.018,0.295-0.026,0.583-0.026,0.862c0.009,5.682,3.776,8.089,8.881,8.922
			c6.71,1.094,11.098,4.608,13.697,10.894c2.736,6.616,8.924,10.401,13.538,15.479l0,0c0.016,0.018,0.032,0.035,0.048,0.053
			c0.002,0.001,0.005,0.004,0.006,0.007c0.707,0.754,1.483,1.118,2.445,1.119c0.003,0,0.006,0,0.007,0c0.008,0,0.015,0,0.022,0
			c0.396-0.001,0.822-0.064,1.29-0.188c0.008-0.002,0.016-0.005,0.024-0.006c0.036-0.011,0.072-0.021,0.108-0.03l0,0
			c0.081-0.023,0.16-0.045,0.241-0.066c1.702-0.465,3.299-0.693,4.782-0.694c0.002,0,0.004,0,0.006,0l0,0l0,0
			c0.004,0,0.009,0,0.013,0c6.243,0.006,10.5,4.061,12.4,11.724c0.03,0.122,0.061,0.245,0.09,0.37
			c1.33,5.662,2.884,11.274,4.382,17.082l0,0l0,0c-0.026,0.006-0.057,0.015-0.087,0.023c-0.036,0.01-0.077,0.023-0.118,0.037
			c-0.02,0.006-0.038,0.014-0.059,0.02c-0.315,0.106-0.756,0.269-1.197,0.276c-0.009,0-0.019,0-0.027,0l0,0l0,0
			c-0.002,0-0.003,0-0.004,0c-0.047,0-0.093-0.003-0.141-0.006c-0.012-0.002-0.024-0.003-0.036-0.005l0,0l0,0
			c-1.133-0.126-2.267-0.777-3.392-1.432c-0.004-0.003-0.01-0.006-0.014-0.009c-0.015-0.009-0.029-0.016-0.042-0.024
			c-1.233-0.717-2.459-1.426-3.66-1.438c-0.011,0-0.019,0-0.027,0c-0.003,0-0.006,0-0.008,0c-0.917,0.003-1.82,0.415-2.708,1.543
			c-0.021,0.026-0.041,0.053-0.061,0.078c-1.407,1.844-2.05,4.012-2.053,6.208c-0.003,2.451,0.788,4.938,2.195,7.05
			c5.787,8.683,7.232,18.629,10.28,30.296l0,0l0,0c-9.683-6.193-19.772-5.191-28.89-8.183c-7.278-2.389-13.951-6.063-17.924-13.35
			c-0.012-0.023-0.025-0.047-0.037-0.069c-0.006-0.008-0.01-0.017-0.014-0.024c-1.298-2.348-2.732-3.734-4.147-3.74
			c-0.003,0-0.006,0-0.009,0c-0.005,0-0.01,0-0.015,0c-1.287,0.009-2.557,1.163-3.69,3.778c-0.006,0.014-0.012,0.026-0.018,0.039
			c-0.011,0.026-0.021,0.053-0.033,0.078c-0.007,0.018-0.015,0.036-0.022,0.054c-0.024,0.057-0.047,0.111-0.07,0.169l0,0
			c-1.608,3.924-4.061,7.055-8.541,7.073c-0.017,0-0.035,0-0.051,0l0,0l0,0c-0.006,0-0.013,0-0.02,0
			c-4.863-0.007-7.946-3.041-9.864-7.31c-0.029-0.065-0.059-0.132-0.087-0.197l0,0c-3.55-8.124-9.064-15.308-12.616-23.217l0,0
			c-0.025-0.055-0.049-0.11-0.075-0.165c-0.017-0.036-0.033-0.073-0.05-0.109c-0.002-0.005-0.004-0.009-0.006-0.014
			c-2.688-5.871-5.811-9.065-10.382-9.069c-0.003,0-0.007,0-0.011,0c-0.005,0-0.009,0-0.014,0c-1.771,0.003-3.76,0.482-6.025,1.471
			c-0.02,0.009-0.04,0.018-0.06,0.025v250.587h64.237c-0.947-1.515-1.953-2.937-3.331-4.044c0.684-0.582,1.367-1.166,2.052-1.747
			c1.48,1.895,2.967,3.795,4.526,5.791h136.948c5.349-2.545,7.062-9.16,3.152-14.098c-2.52-3.183-5.319-5.685-9.609-6.187
			c-3.472-0.406-6.055-2.208-7.582-5.841c0.848,0.017,1.594,0.031,2.259,0.031c4.845,0,5.404-0.733,10.058-6.803
			c0.149-0.192,0.298-0.4,0.49-0.541c7.468-5.405,13.729-12.287,21.701-17.139c3.987-2.427,7.275-6.826,7.179-11.405
			c-0.093-4.349-3.768-7.396-8.204-9.401c-6.479-2.932-12.572-6.716-18.854-10.095c-1.548-0.832-2.391-1.738-0.731-3.763
			c2.184,1.481,4.278,3.164,6.603,4.425c1.304,0.707,2.772,1.02,4.167,1.02c3.396,0,6.37-1.846,5.57-4.331
			c-2.019-6.268,2.271-8.105,5.166-11.26c2.082-2.269,3.151-4.789,2.903-8.013c-0.677-8.794,2.297-18.098-3.935-26.414
			c3.073,1.932,5.155,4.469,7.544,6.677c1.9,1.757,3.361,5.248,5.84,5.248c1.128,0,2.469-0.725,4.159-2.665
			c0.452-0.521,0.894-0.732,1.301-0.732c1.108,0,1.975,1.565,2.183,2.771c0.304,1.762-0.15,3.654-0.3,5.863
			c0.104,0.001,0.209,0.003,0.312,0.003c8.187,0,14.175-5.184,20.951-7.982c3.179-1.313,1.254-3.928-0.996-4.785
			c-3.229-1.231-4.604-3.196-4.444-6.686c1.743,0.951,3.083,1.344,4.139,1.344c4.304,0,3.882-6.532,6.854-8.387
			c2.797,4.562,9.695,5.142,11.947,11.13c0.456,1.209,2.829,2.27,5.079,2.27c0.292,0,0.583-0.019,0.868-0.056
			c1.032-0.139,2.197-1.095,3.226-1.095c0.517,0,0.999,0.24,1.413,0.944c1.495,2.543-1.873,2.938-2.646,4.56
			c-1.067,2.235-3.234,3.05-5.362,3.582c-4.143,1.033-4.112,3.674-2.796,6.753c0.858,2.01,2.056,3.877,3.136,5.789
			c0.859,1.52,1.699,2.376,2.701,2.376c0.808,0,1.719-0.556,2.827-1.77c3.815-4.173,7.902-8.14,12.193-11.82
			c1.289-1.103,2.102-3.803,4.132-3.803c0.788,0,1.759,0.406,3.013,1.469c1.821,1.548,6.334-0.713,8.392,2.839
			c1.029,1.779,2.157,2.463,3.317,2.463c1.303,0,2.642-0.863,3.923-2.012c1.995-1.788,3.669-3.938,5.504-5.91
			c6.319-6.788,13.087-12.459,22.388-12.459c1.617,0,3.308,0.17,5.088,0.536c0.938,0.194,1.979,0.392,2.99,0.392
			c1.467,0,2.877-0.416,3.849-1.869c2.454-3.675,5.739-4.943,10.025-4.95c3.182-0.006,5.115-2.318,7.038-4.776
			c3.913-5.001,7.038-10.953,13.336-13.529c0.641-0.262,1.285-0.511,1.926-0.772v-24.647l0,0c-0.027,0.006-0.055,0.011-0.082,0.016
			c-0.041,0.008-0.08,0.015-0.12,0.022c-0.756,0.134-1.516,0.206-2.266,0.206c-0.005,0-0.009,0-0.014,0l0,0l0,0
			c-0.006,0-0.011,0-0.017,0c-1.064-0.001-2.111-0.146-3.117-0.456c-1.641-0.51-2.533-1.371-2.676-3.025
			c-0.176-2.015-0.661-4.12-2.574-4.129c-0.003,0-0.008,0-0.011,0s-0.006,0-0.009,0c-0.354,0.001-0.755,0.074-1.211,0.229
			c-0.017,0.006-0.031,0.011-0.047,0.017c-1.525,0.539-2.02,1.285-2.019,2.121c0.003,1.241,1.102,2.676,1.55,3.909
			c1.847,5.078,3.852,10.101,5.674,15.188c0.591,1.654,1.325,3.325,1.322,5.289c0,1.258-0.303,2.635-1.139,4.205
			c-3.624-9.232-6.821-17.732-10.333-26.101l0,0c-0.007-0.016-0.013-0.03-0.019-0.046c-0.013-0.03-0.024-0.062-0.037-0.09
			c0-0.002,0-0.002,0-0.002c-0.916-2.302-1.114-5.677-4.381-5.683c-0.001,0-0.004,0-0.007,0l0,0c-0.613,0-1.335,0.118-2.189,0.385
			l0,0l0,0c-0.247,0.076-0.476,0.112-0.686,0.112c0,0-0.001,0-0.003,0l0,0l0,0c-0.006,0-0.013,0-0.019,0
			c-1.492-0.015-1.949-1.851-0.697-3.407c0.005-0.006,0.009-0.011,0.013-0.017c0.023-0.027,0.047-0.056,0.069-0.083l0,0
			c2.878-3.354,5.47-7.172,8.958-9.739c6.64-4.885,9.422-12.226,9.422-19.915c0-7.453-2.615-15.235-6.869-21.424
			c-0.029-0.045-0.062-0.09-0.092-0.134c-0.011-0.013-0.02-0.025-0.029-0.039c-1.703-2.362-3.702-2.705-6.016-2.707
			c-0.006,0-0.01,0-0.015,0c-0.001,0-0.003,0-0.004,0c-0.268,0-0.54,0.006-0.815,0.012l0,0l0,0
			c-0.537,0.014-1.072,0.021-1.602,0.021c-0.002,0-0.002,0-0.006,0l0,0l0,0c-0.006,0-0.013,0-0.02,0
			c-3.459-0.001-6.776-0.371-9.937-2.355c-0.004-0.003-0.01-0.007-0.015-0.01c-0.013-0.008-0.024-0.016-0.037-0.023
			c-0.012-0.007-0.024-0.016-0.036-0.023c-0.019-0.011-0.038-0.022-0.055-0.036c-0.009-0.006-0.02-0.011-0.028-0.017
			c-0.016-0.011-0.03-0.021-0.046-0.03c-0.018-0.012-0.034-0.022-0.052-0.033c-0.027-0.018-0.054-0.037-0.081-0.054
			c-0.024-0.018-0.051-0.035-0.077-0.053l0,0c-4.416-2.993-6.214-4.701-6.211-7.191c0.003-1.832,0.979-4.088,2.604-7.592
			c3.838-8.274,5.877-17.244,10.294-25.51c2.025-3.792,3.955-7.643,5.862-11.51C383.354,12.062,386.29,5.968,389.462,0"/>
		<path fill="#CECECE" d="M394.401,7.937c-0.042,0-0.086,0.001-0.129,0.004c-0.995,0.06-2.31,0.797-3.864,1.97
			c-0.001,0.001-0.004,0.004-0.007,0.006c-0.071,0.054-0.144,0.109-0.217,0.165c-0.035,0.027-0.071,0.055-0.105,0.082
			c-5.443,4.229-7.444,10.756-10.981,16.211c-6.531,10.063-7.578,22.449-13.041,33.095c-0.431,0.839-0.634,1.678-0.635,2.493
			c-0.008,4.04,4.907,7.513,11.402,7.588l0,0c0.036,0,0.072,0,0.108,0l0,0c0.016,0,0.031,0,0.048,0
			c0.909-0.005,1.844-0.136,2.78-0.28c0.03-0.005,0.061-0.009,0.092-0.014c0.05-0.009,0.101-0.016,0.152-0.024
			c0.022-0.003,0.045-0.007,0.067-0.01l0,0c1.053-0.164,2.105-0.328,3.122-0.33c0.004,0,0.01,0,0.016,0l0,0l0,0
			c0.007,0,0.015,0,0.021,0c1.815,0.005,3.516,0.532,4.906,2.508c0.015,0.019,0.029,0.039,0.043,0.059
			c0.031,0.045,0.062,0.09,0.092,0.137l0,0c4.038,6.089,6.719,12.637,8.634,19.863c2.939,11.095-4.113,18.39-7.928,27.01
			c0.004,0,0.009-0.001,0.013-0.001c0,0.009,0,0.017,0.002,0.025c0.585-0.061,1.213-0.067,1.844-0.067
			c0.078,0,0.157,0.001,0.236,0.001c0.084,0,0.168,0,0.252,0c1.38,0,2.737-0.031,3.707-0.608c0,0,0,0,0.001,0
			c0.007-0.005,0.015-0.011,0.023-0.015c0.001-0.001,0.003-0.001,0.003-0.003c0.007-0.003,0.014-0.007,0.02-0.012
			c0.005-0.003,0.008-0.004,0.011-0.006c0.004-0.003,0.01-0.006,0.015-0.009c0.004-0.004,0.01-0.007,0.014-0.01
			c0.003-0.001,0.006-0.004,0.009-0.006c0.006-0.003,0.011-0.007,0.017-0.01c0.002-0.002,0.005-0.003,0.008-0.006
			c0.015-0.011,0.031-0.021,0.045-0.03c0.002,0,0.002-0.002,0.002-0.002c0.007-0.004,0.014-0.01,0.023-0.016l0,0
			c0.033-0.023,0.066-0.046,0.098-0.069c0.021-0.016,0.043-0.03,0.065-0.047c0.06-0.041,0.118-0.082,0.178-0.124
			c0.105-0.072,0.21-0.143,0.312-0.213c0.003-0.001,0.006-0.004,0.01-0.005c1.769-1.187,3.047-1.717,3.974-1.777
			c0.062-0.003,0.12-0.006,0.178-0.006l0,0l0,0c0.002,0,0.004,0,0.004,0c0.074,0,0.148,0.004,0.219,0.01
			c0.006,0.002,0.012,0.002,0.018,0.002l0,0c0.002,0,0.002,0.001,0.003,0.001c0.011,0,0.021,0.002,0.03,0.003l0,0V19.512l0,0
			c-0.105,0.027-0.211,0.041-0.317,0.041h-0.002l0,0l0,0c-0.007,0-0.015,0-0.021,0c-1.721-0.027-3.62-3.383-3.624-6.319
			c0-0.108,0.002-0.216,0.007-0.321c0-0.015,0.002-0.029,0.002-0.043c0.159-3.521-0.565-4.929-1.946-4.933
			C394.404,7.937,394.402,7.937,394.401,7.937"/>
		<path fill="#CECECE" d="M228.559,238.366c-0.312,0-0.632,0.048-0.956,0.145c-2.325,0.694-5.658,0.538-5.826,4.126
			c-0.061,1.278,0.864,2.738,2.218,2.738c0.15,0,0.306-0.019,0.465-0.056c2.723-0.648,5.701-1.29,6.903-4.495
			C230.959,239.188,229.846,238.366,228.559,238.366"/>
		<path fill="#CECECE" d="M388.991,118.467c-0.004,0-0.009,0.001-0.013,0.001l0,0c-2.367,0.181-3.922,1.221-4.246,3.348
			c0,0.002,0,0.003,0,0.006c-0.001,0.008-0.003,0.015-0.004,0.023c0,0.004-0.002,0.009-0.002,0.013
			c-0.001,0.006-0.001,0.011-0.003,0.015c0,0.007-0.001,0.015-0.001,0.021c-0.002,0.003-0.002,0.006-0.002,0.01
			c-0.001,0.009-0.003,0.019-0.004,0.027c0,0.002,0,0,0,0.002c-0.039,0.304-0.055,0.629-0.044,0.978l0,0
			c0.002,0.043,0.004,0.085,0.006,0.127c0,0.016,0.002,0.03,0.002,0.046c0.003,0.044,0.006,0.086,0.01,0.128
			c0,0.004,0,0.007,0,0.012c0,0.003,0.002,0.005,0.002,0.008c0,0.006,0.001,0.012,0.001,0.018c0.012,0.126,0.027,0.244,0.047,0.358
			c0,0,0,0.002,0,0.003c0.322,1.877,1.703,2.159,3.242,2.159c0.416,0,0.843-0.02,1.264-0.036c-0.072-2.017-0.144-4.034-0.213-6.05
			c-0.013-0.396-0.027-0.793-0.04-1.189C388.991,118.483,388.991,118.476,388.991,118.467"/>
		<path fill="#CECECE" d="M396.246,122.747c-0.003,0-0.006,0-0.01,0c-1.688,0.003-3.239,0.518-4.331,2.752
			c-0.007,0.016-0.016,0.033-0.024,0.049c-0.013,0.029-0.027,0.058-0.041,0.088c-0.004,0.009-0.009,0.02-0.013,0.028
			c-0.006,0.013-0.013,0.027-0.019,0.04l0,0c0.409-0.088,0.834-0.123,1.267-0.123h0.001l0,0c0.741,0,1.509,0.1,2.275,0.2
			c0.147,0.02,0.295,0.039,0.442,0.058c0.617,0.076,1.232,0.142,1.83,0.142c0.959,0,1.875-0.168,2.686-0.722l0,0v-2.151l0,0
			c-0.034-0.002-0.07-0.003-0.105-0.005c-0.048-0.003-0.097-0.004-0.146-0.007c-0.49-0.029-0.989-0.089-1.488-0.149
			c-0.779-0.097-1.559-0.198-2.313-0.199C396.253,122.747,396.25,122.747,396.246,122.747"/>
		<path fill="#EAEAEA" d="M400.036,115.453L400.036,115.453c-0.058,0-0.115,0.003-0.178,0.006c-0.927,0.061-2.205,0.591-3.974,1.777
			c-0.004,0.001-0.007,0.004-0.01,0.005c-0.103,0.07-0.207,0.141-0.312,0.213c-0.06,0.042-0.118,0.083-0.178,0.124
			c-0.022,0.017-0.044,0.031-0.065,0.047c-0.031,0.023-0.064,0.046-0.098,0.069l0,0c-0.01,0.006-0.017,0.012-0.023,0.016
			c0,0,0,0.002-0.002,0.002c-0.014,0.01-0.03,0.02-0.045,0.03c-0.003,0.003-0.006,0.004-0.008,0.006
			c-0.006,0.003-0.011,0.007-0.017,0.01c-0.003,0.002-0.006,0.005-0.009,0.006c-0.004,0.003-0.01,0.006-0.014,0.01
			c-0.005,0.003-0.011,0.006-0.015,0.009c-0.003,0.002-0.006,0.003-0.011,0.006c-0.006,0.005-0.013,0.009-0.02,0.012
			c0,0.002-0.002,0.002-0.003,0.003c-0.009,0.004-0.017,0.01-0.023,0.015c-0.001,0-0.001,0-0.001,0
			c-0.977,0.581-2.346,0.61-3.734,0.61c-0.076,0-0.152,0-0.229,0c-0.061,0-0.121-0.002-0.182-0.002
			c-0.648,0-1.292,0.006-1.895,0.068c0.013,0.395,0.027,0.791,0.04,1.188c0.069,2.016,0.141,4.033,0.213,6.05
			c0.001,0,0.001,0,0.003,0c0.853-0.009,1.706-0.018,2.56-0.027l0,0c0.006-0.013,0.013-0.027,0.019-0.04
			c0.004-0.009,0.009-0.02,0.013-0.028c0.014-0.03,0.028-0.059,0.041-0.088c0.009-0.016,0.018-0.033,0.024-0.049
			c1.092-2.234,2.644-2.749,4.331-2.752c0.004,0,0.007,0,0.01,0l0,0c0.005,0,0.008,0,0.011,0c0.755,0.001,1.534,0.103,2.313,0.199
			c0.499,0.061,0.998,0.12,1.488,0.149c0.049,0.003,0.098,0.004,0.146,0.007c0.035,0.002,0.071,0.003,0.105,0.005l0,0v-7.639l0,0
			l0,0c-0.01-0.001-0.02-0.003-0.03-0.003c-0.001,0-0.001-0.001-0.003-0.001l0,0c-0.006,0-0.012,0-0.018-0.002
			c-0.07-0.006-0.145-0.01-0.219-0.01C400.04,115.453,400.038,115.453,400.036,115.453"/>
		<path fill="#EAEAEA" d="M350.834,78.474c-0.498,0-1.013,0.129-1.438,0.368c-1.384,0.785-1.906,1.734-1.909,2.904
			c-0.004,1.206,0.546,2.646,1.271,4.386c1.369-2.257,4.178-2.81,4.181-5.165c0-0.417-0.087-0.89-0.286-1.439
			C352.392,78.805,351.635,78.474,350.834,78.474"/>
		<path fill="#C4C4C4" d="M400.309,0h-10.844c-3.174,5.968-6.111,12.062-9.099,18.118c-1.907,3.867-3.837,7.718-5.862,11.51
			c-4.417,8.266-6.456,17.235-10.294,25.51c-1.625,3.504-2.602,5.76-2.604,7.592c-0.003,2.49,1.795,4.198,6.211,7.191l0,0
			c0.026,0.018,0.053,0.035,0.077,0.053c0.027,0.017,0.054,0.036,0.081,0.054c0.018,0.011,0.034,0.021,0.052,0.033
			c0.016,0.01,0.03,0.02,0.046,0.03c0.009,0.006,0.02,0.011,0.028,0.017c0.017,0.014,0.036,0.025,0.055,0.036
			c0.012,0.008,0.024,0.017,0.036,0.023c0.013,0.008,0.024,0.016,0.037,0.023c0.005,0.003,0.011,0.007,0.015,0.01
			c3.16,1.984,6.478,2.354,9.937,2.355c0.007,0,0.014,0,0.02,0l0,0c0.004,0,0.004,0,0.006,0c0.529,0,1.064-0.008,1.602-0.021l0,0
			l0,0c0.275-0.006,0.548-0.012,0.815-0.012c0.001,0,0.003,0,0.004,0l0,0c0.005,0,0.009,0,0.015,0
			c2.313,0.002,4.312,0.345,6.016,2.707c0.01,0.014,0.019,0.026,0.029,0.039c0.03,0.044,0.062,0.089,0.092,0.134
			c4.254,6.188,6.869,13.971,6.869,21.424c0,7.689-2.782,15.03-9.422,19.915c-3.488,2.567-6.08,6.386-8.958,9.739l0,0
			c-0.022,0.027-0.046,0.056-0.069,0.083c-0.004,0.006-0.008,0.011-0.013,0.017c-1.252,1.557-0.794,3.393,0.697,3.407
			c0.006,0,0.013,0,0.019,0l0,0c0.002,0,0.003,0,0.003,0c0.21,0,0.438-0.036,0.686-0.112l0,0l0,0
			c0.854-0.267,1.576-0.385,2.189-0.385l0,0l0,0c0.003,0,0.006,0,0.007,0c3.267,0.004,3.465,3.381,4.381,5.683c0,0,0,0,0,0.002
			c0.013,0.028,0.024,0.06,0.037,0.09c0.006,0.016,0.012,0.03,0.019,0.046l0,0c3.512,8.368,6.709,16.868,10.333,26.101
			c0.836-1.57,1.139-2.947,1.139-4.205c0.003-1.964-0.731-3.635-1.322-5.289c-1.822-5.087-3.827-10.109-5.674-15.188
			c-0.448-1.233-1.547-2.668-1.55-3.909c-0.001-0.836,0.493-1.582,2.019-2.121c0.016-0.006,0.03-0.011,0.047-0.017
			c0.456-0.155,0.857-0.229,1.211-0.229c0.003,0,0.006,0,0.009,0l0,0c0.003,0,0.008,0,0.011,0c1.913,0.007,2.398,2.114,2.574,4.129
			c0.143,1.654,1.035,2.516,2.676,3.025c1.006,0.311,2.054,0.455,3.117,0.456c0.006,0,0.011,0,0.017,0l0,0c0.005,0,0.009,0,0.014,0
			c0.75,0,1.51-0.072,2.266-0.206c0.04-0.008,0.079-0.015,0.12-0.022c0.027-0.005,0.055-0.01,0.082-0.016l0,0v-12.561l0,0l0,0
			c-0.811,0.554-1.725,0.723-2.684,0.723c-0.599,0-1.213-0.064-1.832-0.143c-0.147-0.019-0.295-0.038-0.442-0.058
			c-0.767-0.101-1.534-0.2-2.275-0.2l0,0c-0.434,0-0.857,0.035-1.268,0.123l0,0l0,0c-0.854,0.01-1.707,0.019-2.56,0.027
			c-0.002,0-0.002,0-0.003,0c-0.421,0.017-0.848,0.036-1.264,0.036c-1.539,0-2.92-0.282-3.242-2.159c0-0.001,0-0.003,0-0.003
			c-0.02-0.114-0.035-0.232-0.047-0.358c0-0.006-0.001-0.012-0.001-0.018c0-0.003-0.002-0.005-0.002-0.008c0-0.005,0-0.008,0-0.012
			c-0.004-0.042-0.007-0.084-0.01-0.128c0-0.016-0.002-0.03-0.002-0.046c-0.002-0.042-0.004-0.084-0.006-0.127l0,0
			c-0.011-0.349,0.005-0.674,0.044-0.978c0-0.002,0,0,0-0.002c0.001-0.009,0.003-0.019,0.004-0.027c0-0.004,0-0.007,0.002-0.01
			c0-0.006,0.001-0.014,0.001-0.021c0.002-0.004,0.002-0.009,0.003-0.015c0-0.004,0.002-0.009,0.002-0.013
			c0.001-0.009,0.003-0.016,0.004-0.023c0-0.003,0-0.004,0-0.006c0.324-2.127,1.879-3.167,4.246-3.348l0,0
			c3.814-8.62,10.867-15.915,7.928-27.01c-1.915-7.227-4.596-13.774-8.634-19.863l0,0c-0.03-0.047-0.061-0.092-0.092-0.137
			c-0.014-0.02-0.028-0.04-0.043-0.059c-1.391-1.976-3.091-2.503-4.906-2.508c-0.007,0-0.015,0-0.021,0l0,0
			c-0.006,0-0.012,0-0.016,0c-1.017,0.002-2.069,0.166-3.122,0.33l0,0c-0.022,0.003-0.045,0.007-0.067,0.01
			c-0.052,0.009-0.103,0.016-0.152,0.024c-0.031,0.005-0.062,0.009-0.092,0.014c-0.937,0.145-1.871,0.275-2.78,0.28
			c-0.017,0-0.032,0-0.048,0l0,0l0,0c-0.036,0-0.072,0-0.108,0l0,0c-6.495-0.075-11.41-3.548-11.402-7.588
			c0.001-0.815,0.204-1.654,0.635-2.493c5.463-10.646,6.51-23.031,13.041-33.095c3.537-5.455,5.538-11.981,10.981-16.211
			c0.034-0.027,0.07-0.055,0.105-0.082c0.073-0.056,0.146-0.111,0.217-0.165c0.003-0.002,0.006-0.005,0.007-0.006
			c1.555-1.173,2.869-1.91,3.864-1.97c0.043-0.003,0.087-0.004,0.129-0.004l0,0c0.001,0,0.003,0,0.006,0
			c1.381,0.003,2.105,1.412,1.946,4.933c0,0.014-0.002,0.028-0.002,0.043c-0.005,0.105-0.007,0.213-0.007,0.321
			c0.004,2.937,1.903,6.292,3.624,6.319c0.007,0,0.015,0,0.021,0l0,0h0.002c0.106,0,0.212-0.014,0.317-0.041l0,0V0"/>
		<path fill="#C4C4C4" d="M33.167,0h-3.855c-0.208,0.709-0.408,1.42-0.626,2.126c-0.389,1.255-0.591,2.4-0.592,3.44
			c-0.005,2.994,1.643,5.113,5.216,6.444c2.307,0.859,4.556,1.657,4.688,4.88c0.354,8.581,6.088,11.781,13.575,12.595
			c3.002,0.327,5.833,1.354,6.763,3.771c4,10.4,14.483,15.132,20.271,23.915c0.005,0.006,0.008,0.012,0.012,0.018
			c0.011,0.015,0.021,0.03,0.029,0.045c0.004,0.006,0.007,0.01,0.012,0.016c0.004,0.008,0.009,0.015,0.014,0.021
			c0.018,0.028,0.036,0.056,0.054,0.083c0.003,0.004,0.005,0.007,0.008,0.012c0.008,0.013,0.017,0.025,0.025,0.039
			c0.918,1.394,1.925,2.891,3.029,2.895c0.002,0,0.004,0,0.005,0c0.01,0,0.021,0,0.028,0c0.769-0.019,1.584-0.761,2.45-2.756
			c0.005-0.011,0.009-0.021,0.015-0.033c0.004-0.012,0.009-0.023,0.015-0.035c0.001-0.003,0.003-0.007,0.004-0.012
			c0.012-0.027,0.024-0.056,0.036-0.084c0.002-0.004,0.004-0.008,0.006-0.013c0.006-0.015,0.012-0.03,0.019-0.045
			c0.002-0.004,0.003-0.007,0.005-0.012c0.004-0.011,0.01-0.022,0.014-0.034c0.006-0.015,0.014-0.03,0.02-0.047
			c0.006-0.014,0.013-0.028,0.019-0.044l0,0c0.01-0.026,0.021-0.053,0.032-0.078c0.002-0.006,0.004-0.012,0.007-0.017
			c0.012-0.03,0.024-0.059,0.038-0.088c0.924-2.166,2.107-3.128,3.424-3.135c0.006,0,0.012,0,0.016,0l0,0l0,0
			c0.012,0,0.021,0,0.032,0c1.29,0.014,2.704,0.938,4.121,2.534c0.03,0.035,0.061,0.07,0.091,0.104
			c0.018,0.019,0.035,0.039,0.053,0.06l0,0c4.334,5.02,4.551,11.223,5.182,17.322l0,0c0.176,0.156,0.353,0.312,0.527,0.469l0,0l0,0
			c-0.273-0.058-0.548-0.114-0.823-0.171l0,0l-0.003,0.003c-4.034,0.979-6.592,1.831-8.163,3.173
			c-2.044,1.747-2.412,4.322-2.175,9.093c0.021,0.415,0.047,0.847,0.075,1.296c0.204,3.134,1.365,5.735,3.247,8.076
			c4.653,5.796,5.4,12.833,7.1,20.396l0,0l0,0c-4-0.935-7.146-2.102-10.564-2.369c-11.653-0.912-22.339-3.89-28.406-15.423
			c-0.979-1.859-2.949-3.29-4.674-4.647l0,0c-0.026-0.021-0.053-0.042-0.078-0.062c-0.001,0-0.002,0-0.002-0.001
			c-0.028-0.021-0.057-0.045-0.086-0.066c-0.01-0.009-0.019-0.017-0.029-0.023c-0.002-0.003-0.005-0.004-0.008-0.007
			c-0.07-0.056-0.141-0.111-0.21-0.167c-0.001,0-0.002-0.001-0.003-0.001c-1.527-1.214-2.93-2.344-4.096-2.354
			c-0.006,0-0.01,0-0.015,0s-0.011,0-0.015,0c-1.166,0.009-2.094,1.157-2.672,4.491c-0.024,0.141-0.047,0.284-0.071,0.432
			c-0.471,3.023-1.211,8.707-7.087,9.029l0,0c-0.184,0.01-0.362,0.015-0.536,0.015c0,0,0,0-0.001,0l0,0l0,0
			c-0.003,0-0.007,0-0.011,0c-5.31-0.006-6.132-4.606-7.476-8.012c-0.022-0.055-0.043-0.108-0.065-0.163l0,0
			c-4.012-9.913-10.552-18.273-15.894-27.36c-0.88-1.495-1.591-3.809-3.51-3.817c-0.004,0-0.008,0-0.012,0c0,0-0.002,0-0.003,0
			c-0.152,0-0.311,0.015-0.478,0.045c-0.012,0.003-0.024,0.004-0.037,0.007c-3.445,0.668-7.169,0.479-10.669,0.993v3.985
			c0.021-0.008,0.04-0.017,0.06-0.025c2.265-0.988,4.254-1.468,6.025-1.471c0.005,0,0.009,0,0.014,0l0,0c0.003,0,0.007,0,0.011,0
			c4.573,0.004,7.695,3.198,10.382,9.069c0.002,0.005,0.004,0.009,0.006,0.014c0.017,0.036,0.033,0.073,0.05,0.109
			c0.025,0.055,0.05,0.11,0.075,0.165l0,0c3.552,7.909,9.066,15.093,12.616,23.217l0,0c0.028,0.065,0.058,0.132,0.087,0.197
			c1.917,4.267,5.001,7.301,9.864,7.31c0.006,0,0.013,0,0.02,0l0,0c0.017,0,0.034,0,0.051,0c4.48-0.019,6.933-3.149,8.541-7.073l0,0
			c0.023-0.058,0.046-0.112,0.07-0.169c0.007-0.018,0.015-0.036,0.022-0.054c0.012-0.025,0.022-0.052,0.033-0.078
			c0.006-0.013,0.012-0.025,0.018-0.039c1.134-2.615,2.403-3.77,3.69-3.778c0.005,0,0.01,0,0.015,0l0,0c0.003,0,0.006,0,0.009,0
			c1.415,0.005,2.849,1.392,4.147,3.74c0.004,0.008,0.008,0.017,0.014,0.024c0.012,0.022,0.025,0.046,0.037,0.069
			c3.973,7.286,10.646,10.961,17.924,13.35c9.117,2.991,19.207,1.989,28.89,8.183c-3.048-11.667-4.493-21.613-10.28-30.296
			c-1.407-2.111-2.198-4.599-2.195-7.05c0.003-2.196,0.646-4.364,2.053-6.208c0.02-0.025,0.04-0.052,0.061-0.078
			c0.888-1.128,1.791-1.54,2.708-1.543c0.002,0,0.005,0,0.008,0l0,0c0.009,0,0.017,0,0.027,0c1.203,0.012,2.427,0.721,3.66,1.438
			c0.013,0.009,0.027,0.016,0.042,0.024c0.004,0.003,0.01,0.006,0.014,0.009c1.125,0.654,2.259,1.306,3.392,1.432l0,0l0,0
			c0.012,0.002,0.024,0.003,0.036,0.005c0.048,0.003,0.094,0.006,0.141,0.006c0.001,0,0.002,0,0.004,0l0,0c0.009,0,0.019,0,0.027,0
			c0.441-0.008,0.882-0.17,1.197-0.276c0.021-0.006,0.039-0.014,0.059-0.02c0.041-0.014,0.082-0.027,0.118-0.037
			c0.03-0.009,0.061-0.018,0.087-0.023l0,0c-1.498-5.808-3.052-11.42-4.382-17.082c-0.029-0.125-0.06-0.248-0.09-0.37
			c-1.9-7.663-6.159-11.718-12.4-11.724c-0.004,0-0.009,0-0.013,0l0,0c-0.002,0-0.004,0-0.006,0
			c-1.483,0.001-3.08,0.229-4.782,0.694c-0.081,0.021-0.16,0.043-0.241,0.066l0,0c-0.036,0.01-0.072,0.02-0.108,0.03
			c-0.009,0.001-0.017,0.004-0.024,0.006c-0.468,0.123-0.895,0.187-1.29,0.188c-0.008,0-0.015,0-0.022,0l0,0
			c-0.001,0-0.004,0-0.007,0c-0.962-0.001-1.738-0.365-2.445-1.119c-0.001-0.003-0.004-0.006-0.006-0.007
			c-0.016-0.018-0.032-0.035-0.048-0.053l0,0c-4.614-5.077-10.802-8.862-13.538-15.479c-2.6-6.285-6.987-9.8-13.697-10.894
			c-5.105-0.833-8.872-3.24-8.881-8.922c0-0.279,0.008-0.567,0.026-0.862c0.01-0.147,0.014-0.292,0.013-0.433
			c-0.007-3.451-2.766-4.731-5.413-5.733c-3.264-1.235-4.48-2.92-4.479-5.363C32.489,2.72,32.741,1.453,33.167,0"/>
		<path fill="#C4C4C4" d="M345,0h-24.405l0,0c-1.101,0.993-2.223,1.959-3.401,2.848c-1.925,1.448-2.565,3.132-2.564,4.791
			c0,1.309,0.403,2.602,0.893,3.749l0,0c0.007,0.018,0.015,0.033,0.021,0.05c0.644,1.471,1.665,2.039,2.8,2.041
			c0.003,0,0.006,0,0.009,0l0,0c0.004,0,0.007,0,0.01,0c1.202-0.004,2.532-0.635,3.687-1.49c0.076-0.057,0.153-0.114,0.229-0.174
			c0.013-0.009,0.024-0.019,0.037-0.029l0,0c0.018-0.014,0.035-0.027,0.053-0.041c0.013-0.009,0.024-0.02,0.037-0.028
			c0.015-0.011,0.027-0.021,0.042-0.031c0.01-0.009,0.021-0.016,0.03-0.023c0.015-0.01,0.027-0.021,0.042-0.03
			c1.488-1.086,3.077-1.297,4.689-1.299c0.006,0,0.013,0,0.019,0l0,0c0.003,0,0.006,0,0.009,0c0.357,0,0.716,0.011,1.075,0.023
			c0.136,0.006,0.272,0.01,0.409,0.016l0,0l0,0c0.112,0.005,0.227,0.009,0.341,0.014c0.378,0.014,0.755,0.025,1.133,0.025
			c0.004,0,0.01,0,0.014,0l0,0c0.006,0,0.011,0,0.015,0c0.406,0,0.812-0.015,1.215-0.052c0.036-0.003,0.072-0.006,0.108-0.01
			c0.097-0.011,0.197-0.018,0.297-0.023c0.182-0.011,0.368-0.013,0.558-0.013c0.005,0,0.011,0,0.015,0l0,0c0.004,0,0.009,0,0.013,0
			c0.069,0,0.14,0,0.21,0.001c0.096,0,0.192,0.001,0.288,0.003l0,0l0,0c0.171,0.003,0.343,0.006,0.512,0.006
			c1.374,0,2.687-0.159,3.202-1.748c0.002-0.012,0.005-0.023,0.01-0.033c0.003-0.012,0.007-0.022,0.01-0.033l0,0
			C338.003,4.045,342.124,2.645,345,0"/>
		<path fill="#C4C4C4" d="M370.393,111.839c-1.582,0-3.383,1.222-6.104,3.267c-6.163,4.632-9.646,11.068-14.242,16.736
			c-2.222,2.74-3.896,5.905-7.538,5.905c-0.528,0-1.097-0.066-1.716-0.211c-5.032-1.171-4.879-5.203-5.226-9.299
			c-0.531-6.3-3.603-9.645-8.268-9.645c-1.667,0-3.539,0.428-5.57,1.3c-5.197,2.231-10.388,4.479-15.576,6.731
			c-2.147,0.931-4.468,2.112-4.47,4.542c0,0.217,0.018,0.444,0.057,0.683c0.091,0.563,0.135,1.091,0.136,1.583
			c0.008,5.121-4.599,6.643-8.055,8.354c-5.67,2.81-10.738,6.926-17.114,8.546c0.861,0.152,1.697,0.221,2.513,0.221
			c6.736,0,12.045-4.688,18.301-6.276c4.733-1.202,6.938-4.243,6.936-8.702c0-0.125-0.003-0.252-0.006-0.379
			c-0.003-0.087-0.004-0.173-0.004-0.258c-0.004-3.516,2.02-4.993,4.823-6.277c3.361-1.537,6.613-3.312,9.939-4.927
			c3.179-1.545,5.507-2.39,7.224-2.39c3.119,0,4.215,2.79,4.721,9.245c0.391,4.989,2.398,8.681,7.422,9.723
			c1.371,0.284,2.714,0.476,4.006,0.476c3.152,0,5.988-1.137,8.125-4.815c2.697-4.644,6.057-8.981,9.616-13.021
			c2.854-3.236,5.795-6.733,10.087-6.731c1.828,0,3.903,0.635,6.319,2.193C374.027,113.769,372.382,111.839,370.393,111.839"/>
		<path fill="#C4C4C4" d="M307.506,166.361c-0.279,0-0.629,0.125-1.07,0.424c-3.222,2.179-7.684,5.274-7.701,10.563
			c0,0.042,0,0.084,0,0.126c0.013,1.315,0.481,2.548,1.613,2.548c0.295,0,0.634-0.083,1.02-0.27c2.986-1.438,7.44-1.634,7.443-6.895
			c0.002-0.807-0.103-1.731-0.333-2.797c-0.003-0.01-0.004-0.032-0.004-0.061c-0.001-0.189,0.058-0.752,0.058-1.38
			C308.534,167.58,308.372,166.361,307.506,166.361"/>
		<path fill="#DBDBDB" d="M29.312,0H0.495v66.76c3.5-0.515,7.225-0.325,10.669-0.993c0.012-0.003,0.024-0.004,0.037-0.007
			c0.167-0.03,0.326-0.045,0.478-0.045c0.001,0,0.002,0,0.003,0l0,0c0.003,0,0.007,0,0.012,0c1.919,0.009,2.63,2.322,3.51,3.817
			c5.342,9.087,11.882,17.447,15.894,27.36l0,0c0.021,0.055,0.043,0.108,0.065,0.163c1.344,3.405,2.167,8.006,7.476,8.012
			c0.004,0,0.007,0,0.011,0l0,0c0.001,0,0.001,0,0.001,0c0.174,0,0.352-0.005,0.536-0.015l0,0c5.876-0.322,6.616-6.006,7.087-9.029
			c0.023-0.147,0.046-0.291,0.071-0.432c0.578-3.334,1.506-4.482,2.672-4.491c0.004,0,0.01,0,0.015,0l0,0c0.005,0,0.009,0,0.015,0
			c1.166,0.011,2.568,1.141,4.096,2.354c0.001,0,0.002,0.001,0.003,0.001c0.069,0.056,0.14,0.111,0.21,0.167
			c0.003,0.003,0.006,0.004,0.008,0.007c0.011,0.007,0.02,0.015,0.029,0.023c0.029,0.021,0.058,0.045,0.086,0.066
			c0,0.001,0.001,0.001,0.002,0.001c0.025,0.021,0.052,0.042,0.078,0.062l0,0c1.725,1.357,3.694,2.788,4.674,4.647
			c6.067,11.533,16.753,14.511,28.406,15.423c3.418,0.268,6.564,1.435,10.564,2.369l0,0c-1.699-7.563-2.446-14.601-7.1-20.396
			c-1.882-2.341-3.043-4.942-3.247-8.076c-0.028-0.449-0.055-0.881-0.075-1.296c-0.237-4.771,0.131-7.348,2.175-9.093
			c1.571-1.342,4.129-2.193,8.163-3.173l0.003-0.003l0.296-0.298c-0.631-6.1-0.848-12.303-5.182-17.322l0,0
			c-0.018-0.021-0.035-0.041-0.053-0.06c-0.03-0.034-0.061-0.069-0.091-0.104c-1.417-1.596-2.831-2.519-4.121-2.534
			c-0.011,0-0.021,0-0.032,0l0,0c-0.004,0-0.01,0-0.016,0c-1.316,0.007-2.5,0.969-3.424,3.135c-0.014,0.029-0.026,0.058-0.038,0.088
			c-0.003,0.005-0.005,0.011-0.007,0.017c-0.011,0.025-0.022,0.052-0.032,0.078l0,0c-0.006,0.016-0.013,0.03-0.019,0.044
			c-0.006,0.017-0.014,0.032-0.02,0.047c-0.004,0.012-0.01,0.023-0.014,0.034c-0.002,0.005-0.003,0.008-0.005,0.012
			c-0.007,0.015-0.013,0.03-0.019,0.045c-0.002,0.005-0.004,0.009-0.006,0.013c-0.012,0.028-0.024,0.057-0.036,0.084
			c-0.001,0.005-0.003,0.009-0.004,0.012c-0.006,0.012-0.011,0.023-0.015,0.035c-0.006,0.012-0.01,0.022-0.015,0.033
			c-0.866,1.995-1.682,2.737-2.45,2.756c-0.008,0-0.019,0-0.028,0l0,0c-0.001,0-0.003,0-0.005,0
			c-1.104-0.004-2.111-1.499-3.029-2.895c-0.009-0.014-0.018-0.026-0.025-0.039c-0.003-0.005-0.005-0.008-0.008-0.012
			c-0.018-0.027-0.036-0.055-0.054-0.083c-0.005-0.007-0.01-0.014-0.014-0.021c-0.005-0.006-0.008-0.01-0.012-0.016
			c-0.009-0.015-0.019-0.03-0.029-0.045c-0.004-0.006-0.007-0.012-0.012-0.018c-5.787-8.783-16.271-13.515-20.271-23.915
			c-0.93-2.417-3.761-3.443-6.763-3.771c-7.486-0.813-13.221-4.014-13.575-12.595c-0.132-3.223-2.382-4.021-4.688-4.88
			c-3.573-1.331-5.221-3.45-5.216-6.444c0.001-1.04,0.203-2.186,0.592-3.44C28.904,1.42,29.104,0.709,29.312,0"/>
		<path fill="#DBDBDB" d="M97.417,73.888L97.417,73.888l-0.296,0.298c0.275,0.057,0.55,0.113,0.823,0.171l0,0
			C97.769,74.2,97.592,74.044,97.417,73.888"/>
	</g>
</g>
<g id="rivers">
	<path fill="none" stroke="#669999" stroke-width="2" stroke-miterlimit="10" d="M0.001,193.763C2.157,194,4.207,194.61,5.86,196.13
		c2.514,2.31,2.949,6.088,5.125,8.668c2.444,2.896,6.314,4.357,9.171,6.778c2.396,2.03,4.607,4.801,7.466,6.199
		c4.775,2.337,10.927,3.598,15.926,2.852c7.428-1.109,14.865,0.112,21.872,2.221c3.466,1.043,6.456,2.116,9.669,3.714
		c3.285,1.634,5.418,1.248,8.822,2.211c1.654,0.469,2.728,1.54,4.072,2.601"/>
	<path fill="none" stroke="#669999" stroke-width="2" stroke-miterlimit="10" d="M34.676,287.272
		c-3.705-3.619-7.099-7.888-11.19-11.385c-7.364-6.295-16.464-11.362-23.483-18.03"/>
	<path fill="none" stroke="#669999" stroke-width="2" stroke-miterlimit="10" d="M53.186,219.896
		c3.871-3.056,10.248-6.979,15.484-5.932c3.147,0.629,5.143,3.191,8.124,4.552c2.457,1.121,5.067,1.234,7.858,1.38
		c2.289,0.12,7.216-1.028,9.182,0.074c1.688,0.947,2.84,4.481,4.064,5.938c2.662,3.167,8.691,8.354,13.408,6.312
		c2.646-1.146,4.127-3.651,7.107-4.458c3.244-0.88,6.932-0.463,10.292-0.463"/>
	<path fill="none" stroke="#669999" stroke-width="2" stroke-miterlimit="10" d="M91.686,219.526
		c6.701,0.86,10.784-2.511,17.049-4.09c6.416-1.618,11.793,1.792,17.831,0.471c5.104-1.117,8.977-5.355,14.357-5.266
		c6.155,0.103,10.669,4.514,16.288,5.923c1.682,0.423,3.464,0.944,5.184,1.481"/>
</g>
<g id="provinces">
	<path fill="none" stroke="#999999" stroke-miterlimit="10" d="M275.429,154.247c-8.66,6.057-9.195,0.171-14.313-6.563
		c-5.381-7.08-13.482-4-20.732-6.023c-6.922-1.932-12.38-5.128-15.797,2.935c-2.073,4.891-2.151,14.996-7.039,17.658
		c0.523,1.677,1.349,4.777,1.557,6.118c0.31,1.992-0.151,4.112,0.042,6.129c0.339,3.499,1.105,6.835,3.167,9.667
		c4.395,6.031,10.83,12.021,14.861,18.435c2.099-1.473,5.657-3.601,4.883-6.644c-0.42-1.648-2.077-1.73-2.667-2.956
		c-0.629-1.304,0.015-2.888,0.295-4.16c1.688-1.33,3.413-1.372,5.844-1.238c0.123,0.725-0.065,1.352-0.497,1.896
		c-2.994,0.263-0.32,7.95,0.336,9.618c0.598,1.515,2.931,2.498,1.87,4.435c-0.845,1.546-3.215,0.649-2.622,3.721
		c2.537,0.372,6.505-3.457,8.782-4.584c4.292-2.124,8.403-4.045,13.121-4.301c-0.162-0.585-0.624-1.443-1.005-1.895
		c-2.36,0.162-7.717-1.7-8.083-4.194c0.479,0.112,1.182-0.167,1.672-0.081c0.535-2.478-2.015-3.145-2.437-5.14
		c-0.424-2.004,0.911-5.272,3.183-4.903c-0.361,4.104,3.858,5.793,4.96,1.441c0.865-3.411,1.487-5.961,5.396-6.951
		c1.675,0.649,3.082,0.876,3.805,1.221C278.413,172.131,280.061,160.095,275.429,154.247z"/>
	<path fill="none" stroke="#999999" stroke-miterlimit="10" d="M174.241,122.657c4.938-5.064,6.514-8.687,5.046-16.428
		c-0.686-3.613-1.03-7.02-2.084-10.5c-1.611-5.324-3.609-9.784,2.776-12.316c3.505-1.39,9.842-2.485,13.511-1.229
		c1.653,0.229-1.685-0.005,0,0c3.825,0.01,9.735-0.022,12.365,2.793c1.504,1.611,3.361,5.169,5.813,5.432
		c1.631,0.174,6.01-4.771,10.479-4.311c3.676,0.28,5.494,5.459,8.392,6.226c1.663,0.441,6.505-1.339,8.941-1.011
		c9.574,1.288,16.708,7.663,13.145,18.264c-2.015,5.994-6.69,3.735-11.637,4.442c-3.362,0.48-7.985,2.113-10.476,4.442
		c-5.966,5.584,1.309,13.971-0.42,20.964c-1.825,0.517-4.225,2.145-5.506,5.169c-2.073,4.891-2.268,14.643-7.155,17.305
		c1.67-11.051-13.925-15.536-21.508-15.797c-6.984-0.238-7.646-4.66-12.182-9.501C179.149,131.702,176.231,128.795,174.241,122.657z
		"/>
	<g id="Capital_Zone_x5F_border">
		<g>
			<path fill="none" stroke="#000000" stroke-width="2" stroke-miterlimit="10" d="M272.195,156.014
				c1.175-0.049,2.451-0.35,3.859-0.969c0.587,0.984,1.091,2.281,1.495,3.704"/>
			<path fill="none" stroke="#000000" stroke-width="2" stroke-miterlimit="10" stroke-dasharray="6.2198,4.6648" d="
				M278.457,163.325c0.156,1.303,0.221,2.556,0.181,3.633c-0.078,2.079-0.354,3.555-0.854,4.813"/>
			<path fill="none" stroke="#000000" stroke-width="2" stroke-miterlimit="10" d="M276.68,173.817
				c-0.651,0.962-1.475,1.929-2.485,3.136l-3.99-0.287"/>
			<path fill="none" stroke="#000000" stroke-width="2" stroke-miterlimit="10" stroke-dasharray="5.7913,4.3435" d="
				M266.585,178.91c-0.903,1.236-1.304,2.843-1.776,4.707c-0.32,1.266-0.904,2.02-1.562,2.353"/>
			<path fill="none" stroke="#000000" stroke-width="2" stroke-miterlimit="10" d="M261.195,185.764
				c-0.867-0.618-1.494-1.898-1.346-3.588c-1.38-0.225-2.413,0.894-2.918,2.254"/>
			<path fill="none" stroke="#000000" stroke-width="2" stroke-miterlimit="10" d="M257.583,188.723
				c0.846,0.982,1.881,1.83,1.521,3.496c-0.49-0.086-1.192,0.193-1.672,0.081c0.16,1.091,1.274,2.06,2.675,2.793"/>
			<path fill="none" stroke="#000000" stroke-width="2" stroke-miterlimit="10" d="M261.606,195.753
				c1.438,0.528,2.931,0.809,3.908,0.741c0.381,0.451,0.843,1.31,1.005,1.895c-1.36,0.074-2.671,0.286-3.95,0.602"/>
			<path fill="none" stroke="#000000" stroke-width="2" stroke-miterlimit="10" stroke-dasharray="6.3852,4.7889" d="
				M258.039,200.526c-1.548,0.647-3.083,1.392-4.641,2.163c-0.842,0.417-1.915,1.202-3.061,2.009"/>
			<path fill="none" stroke="#000000" stroke-width="2" stroke-miterlimit="10" d="M248.342,206.028
				c-1.341,0.815-2.66,1.401-3.727,1.245c-0.461-2.388,0.869-2.377,1.881-2.98"/>
			<path fill="none" stroke="#000000" stroke-width="2" stroke-miterlimit="10" stroke-dasharray="5.0976,3.8232" d="
				M246.799,201.021c-0.511-0.619-1.156-1.204-1.432-1.903c-0.281-0.716-0.935-2.539-1.352-4.408"/>
			<path fill="none" stroke="#000000" stroke-width="2" stroke-miterlimit="10" d="M243.696,192.825
				c-0.186-1.762,0.063-3.214,1.336-3.325c0.432-0.545,0.62-1.172,0.497-1.896c-1.555-0.086-2.82-0.1-3.973,0.25"/>
			<path fill="none" stroke="#000000" stroke-width="2" stroke-miterlimit="10" stroke-dasharray="6.0981,4.5736" d="
				M239.152,191.234c-0.066,0.609-0.029,1.214,0.238,1.768c0.59,1.226,2.247,1.308,2.667,2.956c0.227,0.892,0.082,1.704-0.289,2.445
				"/>
			<path fill="none" stroke="#000000" stroke-width="2" stroke-miterlimit="10" d="M240.364,200.194
				c-1.008,0.95-2.246,1.745-3.189,2.407c-0.695-1.107-1.463-2.201-2.279-3.286"/>
			<path fill="none" stroke="#000000" stroke-width="2" stroke-miterlimit="10" stroke-dasharray="8.0794,6.0595" d="
				M231.071,194.616c-3.03-3.528-6.231-6.982-8.758-10.449c-2.062-2.832-2.828-6.168-3.167-9.667
				c-0.193-2.017,0.268-4.137-0.042-6.129l-3.03-9.928c-0.09-13.983-18.255-8.238-25.636-13.606
				c-3.058-2.222-6.745-6.647-9.079-9.717c-1.921-2.525-7.294-8.975-7.2-12.133c0.049-1.636,2.41-3.618,3.321-5.727
				c3.48-8.072-0.341-15.335-2.046-23.314c-1.297-6.066,0.698-9.052,6.49-11.114c4.188-1.491,14.285-1.801,18.312-0.73
				c4.216,1.119,7.293,8.133,11.766,7.854c2.403-0.15,4.636-2.422,6.951-3.042c2.857-0.766,4.569-0.526,7.114,1.194
				c2.108,1.424,3.22,3.357,5.564,4.061c2.829,0.846,5.669-0.772,8.596-0.081c4.794,1.134,10.373,3.314,12.506,8.226
				c2.036,4.686,0.029,11.532-5.201,12.874c-10.188,2.616-22.545,2.553-19.529,17.04c1.125,5.405,2.627,9.183,8.053,10.456
				c2.887,0.677,5.949,1.915,8.894,2.213c3.01,0.304,5.84-0.216,8.597,0.658c6.576,2.085,9.977,10.035,15.668,12.018"/>
		</g>
	</g>
</g>
<g id="roads">
	<path id="HWY_x5F_1_1_" fill="none" stroke="#7F0000" stroke-miterlimit="10" d="M400.234,97.682
		c-8.829-3.387-12.397,6.834-16.672,4.42c-7.991-4.52-15.509-8.456-23.876-12.274c-6.202-2.829-1.222-14.123-9.844-7.96
		c-5.577,3.985-27.752,4.575-35.386,4.24c1.987,0.066,4.163-8.905,2.463-10.179c-5.396-4.045-21.606,1.507-27.553,0.707
		c-6.95-0.929-16.068-5.798-23.127-3.112c-6.234,2.372-16.614-4.5-23.943-4.519c-23.62-0.078-14.216,35.096-35.163,37.608
		c-5.483,0.657-7.709,11.113-12.38,5.859c-6.454-7.261-10.942-20.964-16.533-29.644c-4.93-7.666-12.957-9.956-20.52-14.816
		c-6.489-4.169-21.233-8.487-25.69-13.436c-7.085-7.867-13.864-11.035-23.799-6.926c-12.389,5.125-25.039,4.8-38.157,6.631
		c-13.456,1.878-28.028,0.173-41.327-3.579C18.72,47.88,9.458,42.924-0.002,38.562"/>
	<path id="HWY_x5F_14_3_" fill="none" stroke="#7F0000" stroke-miterlimit="10" d="M192.965,0.493
		c-0.697,8.852-4.203,17.8-8.955,24.479c-8.805,12.38,16.65,0.319,15.249,4.104c-2.78,7.486-1.155,14.767-4.35,22.271
		c-1.811,4.25-9.026,5.682-5.096,10.604"/>
	<path id="HWY_x5F_4_2_" fill="none" stroke="#7F0000" stroke-miterlimit="10" d="M22.204,321.334
		c-4.39-6.684-8.901-13.206-13.895-19.084c-5.075-5.973-9.996-4.797-2.108-15.712c1.505-2.103,0.496-7.453,3.029-7.493
		c3.112-0.06,6.884-4.745,4.657-7.458c7.917-1.307,23.424-10.821,26.505-18.849c3.309-8.578,7.494-16.964,11.32-25.262
		c1.636-3.534-10.929-5.698-13.635-4.351c1.396-0.715-1.19-9.054-1.179-10.77c0.018-2.588,11.664-8.946,14.717-9.13
		c2.885-0.174,14.644-0.829,16.33-2.549c3.854-3.932-0.196-7.881,6.312-9.999c3.997-1.305,8.1,2.87,11.862,2.432
		c5.967-0.672,12.173-0.034,18.211-0.545c7.784-0.668,26.474,3.55,30.935,9.059c-6.36-7.851-6.81-15.408-0.515-24.235
		c7.285-10.205,12.157-21.532,19.596-31.526c4.663-6.27,17.37-3.379,24.929-10.817c7.25-7.185,6.014-15.399,16.691-20.395"/>
</g>
<g id="Map_x5F_Text">
	<g id="ProvincesGroup">
		<text transform="matrix(1 0 0 1 237.1177 164.3174)" opacity="0.5"><tspan x="0" y="0" fill="#4C4C4C" font-family="'Tahoma'" font-size="10">GIA</tspan><tspan x="-3.77" y="12" fill="#4C4C4C" font-family="'Tahoma'" font-size="10">DINH</tspan></text>
	</g>
	<g id="Cities">
		<g id="IV_Corps_Cities">
			<circle cx="15.302" cy="279.373" r="4.935"/>
			<text transform="matrix(1 0 0 1 30.6245 285.5469)"><tspan x="0" y="0" font-family="'Tahoma'" font-size="12">Can</tspan><tspan x="-0.009" y="12" font-family="'Tahoma'" font-size="12">Tho</tspan></text>
			<circle cx="58.245" cy="236.43" r="4.936"/>
			<text transform="matrix(1 0 0 1 20.4419 236.9238)"><tspan x="0" y="0" font-family="'Tahoma'" font-size="12">Vinh</tspan><tspan x="-1.263" y="12" font-family="'Tahoma'" font-size="12">Long</tspan></text>
			<circle cx="139.69" cy="205.333" r="4.936"/>
			<text transform="matrix(1 0 0 1 110.3589 179.9141)"><tspan x="0" y="0" font-family="'Tahoma'" font-size="12">My</tspan><tspan x="-2.496" y="12" font-family="'Tahoma'" font-size="12">Tho</tspan></text>
			<circle cx="40.476" cy="120.928" r="4.936"/>
			<text transform="matrix(1 0 0 1 16.2524 139.9316)"><tspan x="0" y="0" font-family="'Tahoma'" font-size="12">Moc</tspan><tspan x="0.19" y="12" font-family="'Tahoma'" font-size="12">Hoa</tspan></text>
			<circle cx="206.325" cy="119.447" r="4.935"/>
			<text transform="matrix(1 0 0 1 242.8374 134.2539)" font-family="'Tahoma'" font-size="12">Saigon</text>
		</g>
		<g id="III_Corps_Cities">
			<circle cx="123.401" cy="88.351" r="4.936"/>
			<text transform="matrix(1 0 0 1 109.5405 63.6709)"><tspan x="0" y="0" font-family="'Tahoma'" font-size="12">Cu</tspan><tspan x="-1.371" y="12" font-family="'Tahoma'" font-size="12">Chi</tspan></text>
			<circle cx="231.499" cy="75.023" r="4.936"/>
			<text transform="matrix(1 0 0 1 260.0698 58.7383)"><tspan x="0" y="0" font-family="'Tahoma'" font-size="12">Bien</tspan><tspan x="0.952" y="12" font-family="'Tahoma'" font-size="12">Hoa</tspan></text>
			<circle cx="290.731" cy="212.737" r="4.936"/>
			<text transform="matrix(1 0 0 1 293.897 231.7422)" font-family="'Tahoma'" font-size="12">Vung Tau</text>
		</g>
	</g>
	<g id="Landmarks">
		<text transform="matrix(1 0 0 1 157.314 42.2012)"><tspan x="0" y="0" font-family="'Tahoma'" font-size="12">Iron</tspan><tspan x="-10.374" y="12" font-family="'Tahoma'" font-size="12">Triangle</tspan></text>
		<text transform="matrix(1 0 0 1 34.3071 71.8164)"><tspan x="0" y="0" font-family="'Tahoma'" font-size="12">Parrots</tspan><tspan x="7.157" y="12" font-family="'Tahoma'" font-size="12">Beak</tspan></text>
		<polygon points="84.899,3.948 77.495,15.794 92.302,15.794 		"/>
		<text transform="matrix(1 0 0 1 73.4321 30.1074)"><tspan x="0" y="0" font-family="'Tahoma'" font-size="12">Nui Ba Den</tspan><tspan x="5.285" y="12" font-family="'Tahoma'" font-size="12">Mountain</tspan></text>
	</g>
	<g id="CorpsZones">
		<text transform="matrix(1 0 0 1 272.0581 278.1426)"><tspan x="0" y="0" font-family="'Tahoma'" font-size="14">Special Capial</tspan><tspan x="27.064" y="16.289" font-family="'Tahoma'" font-size="14">Zone</tspan></text>
	</g>
</g>
<g id="Structures">
	<polygon id="airbase_x5F_icon_4_" points="193.056,83.226 194.859,81.145 186.326,77.328 187.92,75.247 200.341,75.178 
		203.186,73.096 204.85,72.887 207.903,70.39 211.094,69.072 209.983,71.5 207.139,75.178 206.584,76.981 204.642,79.688 
		204.571,91.759 202.769,93.286 199.231,85.308 196.664,87.111 196.942,91.689 195.623,92.592 194.236,90.023 193.124,90.164 
		192.223,89.331 192.431,88.568 193.333,87.734 192.431,87.042 191.459,87.458 190.765,87.666 189.865,86.902 190.142,85.931 
		187.159,84.197 188.2,83.087 	"/>
	<text id="TanSonNhutAFB_2_" transform="matrix(1 0 0 1 139.8218 75.209)"><tspan x="0" y="0" font-family="'Tahoma'" font-size="12">Tan Son</tspan><tspan x="-3.021" y="12" font-family="'Tahoma'" font-size="12">Nhut AFB</tspan></text>
	<polygon id="airbase_x5F_icon_8_" points="227.986,55.636 230.036,53.27 220.338,48.935 222.151,46.568 236.265,46.489 
		239.497,44.125 241.388,43.888 244.859,41.05 248.485,39.552 247.222,42.312 243.992,46.489 243.36,48.539 241.152,51.615 
		241.074,65.333 239.026,67.066 235.002,58.001 232.084,60.051 232.401,65.253 230.903,66.278 229.326,63.361 228.064,63.52 
		227.04,62.573 227.276,61.706 228.301,60.759 227.276,59.971 226.172,60.445 225.383,60.683 224.36,59.813 224.674,58.711 
		221.284,56.738 222.468,55.478 	"/>
	<text id="BienHoaAFB" transform="matrix(1 0 0 1 202.0776 21.2227)"><tspan x="0" y="0" font-family="'Tahoma'" font-size="12">Bien Hoa</tspan><tspan x="13.483" y="12" font-family="'Tahoma'" font-size="12">AFB</tspan></text>
	<polygon points="193.985,93.779 193.985,98.715 189.049,98.715 189.049,103.651 193.985,103.651 193.985,108.587 198.921,108.587 
		198.921,103.651 203.857,103.651 203.857,98.715 198.921,98.715 198.921,93.779 	"/>
	<text transform="matrix(1 0 0 1 128.5679 110.4844)"><tspan x="0" y="0" font-family="'Tahoma'" font-size="12">3rd Field</tspan><tspan x="1.772" y="12" font-family="'Tahoma'" font-size="12">Hospital</tspan></text>
	<path id="port_x5F_icon_6_" d="M273.998,200.172c0,0.71-0.575,1.287-1.285,1.287s-1.286-0.577-1.286-1.287s0.576-1.285,1.286-1.285
		S273.998,199.462,273.998,200.172z M274.661,200.172c0-1.076-0.872-1.948-1.948-1.948c-1.074,0-1.946,0.872-1.946,1.948
		c0,0.879,0.584,1.62,1.384,1.862l-0.052,1.262h-2.343c-0.315,0-0.57,0.254-0.57,0.569l0,0c0,0.315,0.255,0.569,0.57,0.569h2.29
		l-0.436,9.924c0,0,0.074,0.588-1.139,0.588c-1.214,0-2.478-1.071-3.381-2.241c-0.498-0.644,0.412-0.782,0.412-0.782l-2.426-1.267
		l0.083,2.756c0,0,0.689-0.717,0.991-0.027c0,0,1.903,2.15,2.702,2.674c0.8,0.523,1.323,0.358,2.287,0.91
		c0.966,0.551,1.572,1.57,1.572,1.57s0.605-1.02,1.571-1.57c0.965-0.552,1.488-0.387,2.288-0.91
		c0.798-0.523,2.701-2.674,2.701-2.674c0.303-0.689,0.992,0.027,0.992,0.027l0.083-2.756l-2.426,1.267c0,0,0.91,0.139,0.412,0.782
		c-0.903,1.17-2.168,2.241-3.381,2.241s-1.14-0.588-1.14-0.588l-0.437-9.924h2.367c0.315,0,0.57-0.254,0.57-0.569l0,0
		c0-0.315-0.255-0.569-0.57-0.569h-2.418l-0.055-1.262C274.075,201.793,274.661,201.051,274.661,200.172z"/>
</g>
</svg>
